<mxfile host="app.diagrams.net" modified="2023-12-13T12:36:26.504Z" agent="Mozilla/5.0 (Windows NT 10.0; Win64; x64) AppleWebKit/537.36 (KHTML, like Gecko) Chrome/120.0.0.0 Safari/537.36" version="22.1.8" etag="8k7X73XQlx5MbOATddSA" type="github">
  <diagram name="Page-1" id="udlZTOqjf8p95eHieu4j">
    <mxGraphModel>
      <root>
        <mxCell id="0" />
        <mxCell id="1" parent="0" />
      </root>
    </mxGraphModel>
  </diagram>
</mxfile>
